<svg width="50" height="50" viewBox="-130 0 1250 420" fill="none" xmlns="http://www.w3.org/2000/svg">

<g clip-path="url(#clip0_0_1)">
<rect width="1120" height="500" fill="transparent"/>
<path d="M899.991 471L852.255 246.264H850.109L802.373 471H672.036L585.682 101.982H709.045L751.418 311.164H753.564L795.4 101.982H912.327L956.845 311.164H958.991L998.682 101.982H1116.68L1030.33 471H899.991Z" fill="black"/>
<path d="M597.936 215.155C597.936 237.682 591.858 258.064 579.7 276.3C567.542 294.536 549.842 307.945 526.6 316.527L608.664 471H475.645L410.209 336.373H366.227V471H247.691V101.982H473.5C499.961 101.982 522.488 107.167 541.082 117.536C560.033 127.548 574.158 141.315 583.455 158.836C593.109 176 597.936 194.773 597.936 215.155ZM477.255 219.982C477.255 210.327 474.036 202.282 467.6 195.845C461.164 189.409 453.297 186.191 444 186.191H366.227V254.309H444C453.297 254.309 461.164 251.091 467.6 244.655C474.036 237.861 477.255 229.636 477.255 219.982Z" fill="#0C0B0B"/>
<path d="M225.547 186H371V500H220L225.547 186Z" fill="#FEFEFE"/>
<path d="M318.064 342.809C318.064 388.936 304.833 422.906 278.373 444.718C252.27 466.53 214.545 477.436 165.2 477.436C115.855 477.436 77.9515 466.53 51.4909 444.718C25.3879 422.906 12.3364 388.936 12.3364 342.809V337.982H123.364V342.273C123.364 359.079 126.403 371.058 132.482 378.209C138.918 385.361 148.573 388.936 161.445 388.936C174.318 388.936 183.794 385.361 189.873 378.209C196.309 371.058 199.527 359.079 199.527 342.273V101.982H318.064V342.809Z" fill="black"/>
</g>
<defs>
<clipPath id="clip0_0_1">
<rect width="1120" height="500" fill="white"/>
</clipPath>
</defs>
</svg>
